<?xml version="1.0" encoding="UTF-8"?>
<svg id="a" data-name="Layer 1" xmlns="http://www.w3.org/2000/svg" viewBox="0 0 1100 300">
  <defs>
    <style>
      .f {
        fill-rule: evenodd;
      }

      .f, .g {
        stroke-width: 0px;
      }
    </style>
  </defs>
  <path class="g" d="m465.13,38.09v32.67h-32.24v191.16h-32.67V70.76h-31.81v-32.67h96.73Zm62.06,142.33h32.67v-109.66h-32.67v109.66h0Zm32.67-142.33c7.67,0,14.84,3.59,21.64,10.75,6.8,7.16,10.17,14.48,10.17,21.92v191.16h-31.81v-49.68h-32.67v49.68h-31.81V70.76c0-7.45,3.44-14.76,10.32-21.92,6.87-7.16,14.04-10.75,21.5-10.75h32.67Zm163.51,0v192.02c0,9.15-3.09,16.78-9.32,22.79-6.22,6.01-13.77,9.03-22.5,9.03h-32.67c-8.87,0-16.41-3.08-22.57-9.24-6.16-6.16-9.24-13.69-9.24-22.57v-36.48h31.81v36.48h32.67v-68.3h-32.67c-7.41,0-14.62-3.44-21.5-10.32-6.88-6.88-10.32-14.04-10.32-21.5V38.09h31.81v91.91h32.67V38.09h31.81Zm35.41,223.83V38.09h85.55v32.67h-53.74v191.16h-31.81Zm141.45-81.5h32.67v-109.66h-32.67v109.66h0Zm32.67-142.33c7.67,0,14.85,3.6,21.64,10.75,6.79,7.15,10.17,14.5,10.17,21.92v191.16h-31.81v-49.68h-32.67v49.68h-31.81V70.76c0-7.45,3.46-14.77,10.32-21.92,6.86-7.15,14.04-10.75,21.5-10.75h32.67Zm70.37,32.67c0-9.17,3.15-16.91,9.46-23.21,6.3-6.3,13.76-9.46,22.36-9.46h32.67c8.31,0,15.76,3.58,22.35,10.75,6.59,7.16,9.89,14.52,9.89,21.92v48.49c0,15.15-5.88,24.65-17.63,28.37,6.31,2.58,10.82,5.45,13.54,8.6,2.72,3.15,4.08,8.79,4.08,16.77v57.12c0,9.13-3.18,16.79-9.46,22.79-6.28,6-13.94,9.03-22.78,9.03h-32.67c-8.84,0-16.41-3.08-22.57-9.24-6.16-6.16-9.24-13.69-9.24-22.57v-36.48h31.81v36.48h33.1v-68.3h-34.39v-31.81h34.39v-59.24h-33.1v27.42h-31.81v-27.42h0Z"/>
  <path class="f" d="m188.39,47.14l17.57,16.2c12.51-7.68,29.09-6.11,39.92,4.72,12.68,12.67,12.68,33.23,0,45.9-12.68,12.68-33.23,12.68-45.9,0-10.19-10.19-12.18-25.45-6-37.64l-17.56-16.2c-12.51,7.69-29.09,6.11-39.92-4.72-12.68-12.67-12.68-33.23,0-45.9,12.67-12.68,33.23-12.68,45.9,0,10.19,10.19,12.19,25.46,6,37.64h0ZM9.51,127.05c10.8-10.81,27.33-12.4,39.83-4.78l17.72-16.46c-6.25-12.2-4.27-27.53,5.95-37.74,12.68-12.68,33.23-12.68,45.9,0,12.67,12.67,12.68,33.23,0,45.9-10.8,10.8-27.33,12.4-39.83,4.78l-17.72,16.46c4.72,9.22,4.74,20.22.06,29.46l17.54,16.16c12.51-7.7,29.11-6.13,39.94,4.71,12.67,12.67,12.67,33.23,0,45.9-12.67,12.67-33.23,12.67-45.9,0-10.18-10.18-12.18-25.44-6.01-37.62l-17.54-16.16c-12.51,7.7-29.1,6.13-39.94-4.71-12.68-12.67-12.68-33.23,0-45.9h0Zm181.17,14.1h64.52c1.46-5.16,4.22-10.03,8.28-14.1,12.67-12.68,33.23-12.68,45.9,0,12.68,12.67,12.68,33.23,0,45.9-12.67,12.68-33.23,12.68-45.9,0-4.06-4.06-6.82-8.94-8.28-14.1h-64.52c-1.46,5.16-4.22,10.04-8.28,14.1-12.68,12.68-33.23,12.68-45.9,0-12.67-12.67-12.67-33.23,0-45.9,12.68-12.68,33.23-12.68,45.9,0,4.06,4.06,6.82,8.94,8.28,14.1h0Zm-15.33,98.09l18.42-16.48c-5.92-12.11-3.85-27.15,6.21-37.22,12.67-12.68,33.23-12.68,45.9,0,12.68,12.67,12.68,33.23,0,45.9-10.96,10.96-27.8,12.44-40.36,4.45l-17.72,15.85c6.89,12.35,5.08,28.25-5.42,38.75-12.67,12.68-33.23,12.68-45.9,0-12.68-12.67-12.68-33.23,0-45.9,10.53-10.53,26.49-12.31,38.86-5.35h0Z"/>
</svg>