<?xml version="1.0" standalone="no"?>
<!DOCTYPE svg PUBLIC "-//W3C//DTD SVG 20010904//EN"
 "http://www.w3.org/TR/2001/REC-SVG-20010904/DTD/svg10.dtd">
<svg version="1.0" xmlns="http://www.w3.org/2000/svg"
 width="300.000000pt" height="350.000000pt" viewBox="0 0 300.000000 350.000000"
 preserveAspectRatio="xMidYMid meet">

<g transform="translate(0.000000,350.000000) scale(0.100000,-0.100000)"
fill="#000000" stroke="none">
<path d="M1417 3486 c-96 -36 -157 -124 -157 -228 0 -98 47 -175 135 -221 50
-26 155 -29 200 -5 l29 16 67 -59 66 -60 -13 -37 c-36 -101 10 -224 104 -279
118 -70 261 -38 332 74 37 57 46 119 30 191 -10 46 -21 65 -65 108 -73 73
-159 93 -255 59 l-42 -15 -64 57 c-53 47 -63 60 -57 77 5 12 8 55 8 97 0 67
-4 81 -30 125 -42 68 -105 105 -187 110 -39 3 -77 -1 -101 -10z"/>
<path d="M941 3048 c-18 -5 -57 -33 -86 -62 -66 -66 -86 -133 -67 -224 l12
-56 -48 -49 c-64 -66 -72 -70 -122 -52 -115 41 -241 -9 -295 -115 -54 -106
-22 -247 70 -310 75 -51 174 -62 245 -25 24 12 29 9 88 -46 l64 -58 -12 -54
c-32 -141 50 -271 185 -296 166 -31 314 106 290 268 -23 156 -176 248 -325
196 l-42 -15 -47 39 c-77 65 -82 72 -71 112 13 44 13 121 0 155 -10 26 -7 32
51 90 l61 62 37 -15 c20 -9 64 -15 97 -15 225 -1 326 278 154 424 -63 54 -152
71 -239 46z"/>
<path d="M1418 2605 c-163 -60 -213 -278 -92 -399 73 -72 195 -94 280 -49 52
28 101 78 116 120 l12 33 242 0 242 0 6 -23 c3 -12 22 -42 42 -65 150 -176
424 -76 424 155 0 222 -261 325 -416 165 -19 -19 -39 -50 -46 -68 l-12 -34
-237 0 -238 0 -27 50 c-58 107 -185 156 -296 115z"/>
<path d="M1891 2166 c-48 -17 -108 -71 -132 -119 -23 -44 -30 -126 -16 -187 8
-34 6 -37 -56 -92 l-64 -56 -57 16 c-158 44 -306 -69 -306 -232 1 -142 99
-240 240 -240 102 0 181 49 221 139 21 45 25 136 8 184 -13 37 -7 45 73 113
42 35 50 38 70 27 65 -35 174 -28 241 17 48 32 94 104 103 162 4 25 1 68 -6
100 -10 46 -21 65 -64 107 -72 71 -165 94 -255 61z"/>
<path d="M0 850 l0 -70 65 0 65 0 0 -390 0 -390 65 0 65 0 0 390 0 389 68 3
67 3 3 68 3 67 -201 0 -200 0 0 -70z"/>
<path d="M602 904 c-19 -10 -44 -33 -58 -53 l-24 -36 0 -407 0 -408 65 0 65 0
0 100 0 100 70 0 70 0 0 -100 0 -100 65 0 65 0 0 395 c0 433 0 434 -59 490
-31 29 -37 30 -129 33 -75 2 -104 -1 -130 -14z m186 -346 l-3 -223 -65 0 -65
0 -3 223 -2 222 70 0 70 0 -2 -222z"/>
<path d="M1060 718 c0 -185 2 -206 20 -236 34 -55 73 -72 168 -72 l83 0 -3
-138 -3 -137 -67 -3 -68 -3 0 76 0 75 -65 0 -65 0 0 -92 c0 -156 34 -188 202
-188 83 0 108 4 131 19 64 42 62 25 65 484 l3 417 -65 0 -66 0 -2 -187 -3
-188 -67 -3 -68 -3 0 191 0 190 -65 0 -65 0 0 -202z"/>
<path d="M1600 460 l0 -460 65 0 65 0 0 390 0 390 110 0 110 0 0 70 0 70 -175
0 -175 0 0 -460z"/>
<path d="M2132 904 c-19 -10 -44 -33 -58 -53 l-24 -36 0 -407 0 -408 65 0 65
0 0 100 0 100 65 0 65 0 0 -100 0 -100 70 0 70 0 0 388 c0 223 -4 402 -10 422
-5 20 -26 51 -45 70 -36 34 -38 35 -133 38 -75 2 -104 -1 -130 -14z m178 -349
l0 -226 -62 3 -63 3 -3 223 -2 222 65 0 65 0 0 -225z"/>
<path d="M2669 897 c-49 -32 -69 -79 -69 -159 l0 -68 65 0 65 0 0 55 0 55 70
0 70 0 0 -120 0 -120 -70 0 -70 0 0 -65 0 -65 70 0 70 0 0 -140 0 -141 -67 3
-68 3 -3 73 -3 72 -66 0 -65 0 4 -97 c6 -157 35 -183 198 -183 115 0 149 12
180 63 18 28 20 51 20 190 l0 159 -28 28 -29 28 26 26 c25 26 26 30 29 174 2
133 1 150 -18 180 -35 57 -72 72 -181 72 -83 0 -101 -3 -130 -23z"/>
</g>
</svg>
